<svg width="1000" height="1000" viewBox="0 0 1000 1000" fill="none" xmlns="http://www.w3.org/2000/svg">
<rect width="1000" height="1000" fill="white"/>
<path d="M169.102 555.87C162.495 555.87 156.698 553.938 151.711 550.073C146.849 546.084 141.426 538.978 135.442 528.755L116.742 496.965H103.652V554H86.822V453.02C86.822 446.662 85.9493 441.987 84.204 438.995C82.4587 435.878 78.968 434.32 73.732 434.32H69.992V430.58H118.612C130.455 430.58 141.177 432.949 150.776 437.686C160.5 442.299 165.362 451.15 165.362 464.24C165.362 480.821 155.389 491.417 135.442 496.03L155.077 528.755C159.69 536.484 163.804 541.907 167.419 545.024C171.159 548.016 175.46 549.761 180.322 550.26V554C179.2 554.499 177.579 554.935 175.46 555.309C173.465 555.683 171.346 555.87 169.102 555.87ZM117.677 490.42C121.542 490.42 125.718 489.485 130.206 487.615C134.819 485.745 138.683 482.815 141.8 478.826C145.041 474.837 146.662 469.975 146.662 464.24C146.662 458.131 145.041 453.082 141.8 449.093C138.683 444.979 134.819 441.987 130.206 440.117C125.718 438.122 121.542 437.125 117.677 437.125C113.314 437.125 108.639 437.748 103.652 438.995V488.55C108.639 489.797 113.314 490.42 117.677 490.42ZM198.036 453.02C198.036 446.662 197.163 441.987 195.418 438.995C193.673 435.878 190.182 434.32 184.946 434.32H181.206V430.58H260.868C271.465 430.58 276.763 435.567 276.763 445.54V459.565H273.023C273.023 445.228 265.231 438.06 249.648 438.06H214.866V486.68H265.356V494.16H214.866V546.52H247.591C256.193 546.52 262.925 544.962 267.787 541.845C272.649 538.728 276.514 533.43 279.381 525.95L283.121 526.885L276.576 544.65C274.332 550.883 269.657 554 262.551 554H198.036V453.02ZM308.337 453.02C308.337 446.662 307.464 441.987 305.719 438.995C303.973 435.878 300.483 434.32 295.247 434.32H291.507V430.58H340.501C364.686 430.58 382.95 435.941 395.292 446.662C407.758 457.383 413.992 472.343 413.992 491.542C413.992 503.884 411.374 514.792 406.138 524.267C400.902 533.617 393.11 540.91 382.763 546.146C372.54 551.382 360.073 554 345.363 554H308.337V453.02ZM344.802 547.455C354.027 547.455 362.317 545.211 369.673 540.723C377.153 536.11 383.012 529.69 387.251 521.462C391.489 513.109 393.609 503.385 393.609 492.29C393.609 481.444 391.489 471.845 387.251 463.492C383.137 455.139 377.34 448.657 369.86 444.044C362.38 439.431 353.902 437.125 344.428 437.125C338.444 437.125 332.21 438.122 325.728 440.117V545.024C332.709 546.645 339.067 547.455 344.802 547.455ZM488.762 453.02C488.762 446.662 487.89 441.987 486.144 438.995C484.399 435.878 480.908 434.32 475.672 434.32H471.932V430.58H546.545C557.142 430.58 562.44 435.567 562.44 445.54V459.565H558.7C558.7 445.228 550.909 438.06 535.325 438.06H505.592V487.615H547.854V495.095H505.592V554H488.762V453.02ZM587.376 453.02C587.376 446.662 586.503 441.987 584.758 438.995C583.012 435.878 579.522 434.32 574.286 434.32H570.546V430.58H587.376C591.988 430.58 595.417 431.203 597.661 432.45C600.029 433.572 601.712 435.691 602.71 438.808C603.707 441.925 604.206 446.662 604.206 453.02V546.52H670.591V554H587.376V453.02ZM788.142 554.935C782.158 554.935 776.236 553.314 770.377 550.073C764.518 546.707 759.843 540.224 756.352 530.625L751.677 518.47H699.317L684.357 554H675.942L728.302 430.58H733.912L775.052 530.625C778.169 537.856 781.098 542.842 783.841 545.585C786.584 548.203 790.511 549.761 795.622 550.26V554C793.378 554.623 790.885 554.935 788.142 554.935ZM747.937 510.99L725.497 456.76L702.122 510.99H747.937ZM859.781 557.74C847.563 557.74 836.593 554.748 826.869 548.764C817.269 542.78 809.727 534.677 804.242 524.454C798.881 514.107 796.201 502.762 796.201 490.42C796.201 478.577 798.569 467.855 803.307 458.256C808.044 448.532 814.776 440.865 823.503 435.255C832.354 429.645 842.577 426.84 854.171 426.84C864.892 426.84 874.117 428.274 881.847 431.141C889.701 433.884 895.435 437.437 899.051 441.8C901.045 444.293 902.292 447.597 902.791 451.711C903.414 455.825 903.726 460.936 903.726 467.045H899.986C897.617 456.074 893.129 447.909 886.522 442.548C879.914 437.063 871.001 434.32 859.781 434.32C849.683 434.32 841.268 437 834.536 442.361C827.804 447.597 822.817 454.454 819.576 462.931C816.459 471.408 814.901 480.571 814.901 490.42C814.901 511.489 819.015 526.76 827.243 536.235C835.471 545.585 846.317 550.26 859.781 550.26C866.139 550.26 871.562 549.699 876.05 548.577C880.538 547.455 884.776 545.834 888.766 543.715V511.177C888.766 506.938 889.451 503.261 890.823 500.144C892.194 497.027 895.124 494.472 899.612 492.477C904.224 490.358 910.894 489.298 919.621 489.298V493.038C914.011 493.038 910.271 494.472 908.401 497.339C906.531 500.206 905.596 504.694 905.596 510.803V545.959C898.864 550.073 891.82 553.065 884.465 554.935C877.109 556.805 868.881 557.74 859.781 557.74Z" fill="#5C5C5C"/>
<path d="M197.714 640.201C196.586 641.76 194.607 643.052 191.777 644.077C188.947 645.103 185.83 645.615 182.425 645.615C179.103 645.615 176.14 644.805 173.535 643.185C170.931 641.565 168.89 639.278 167.414 636.325C165.958 633.372 165.209 630.029 165.168 626.297V618.606C165.168 614.936 165.875 611.644 167.291 608.732C168.706 605.82 170.695 603.574 173.258 601.995C175.822 600.396 178.703 599.596 181.902 599.596C186.353 599.596 189.972 600.734 192.761 603.01C195.571 605.287 197.201 608.394 197.652 612.331H195.991C195.438 608.763 193.951 606.025 191.531 604.118C189.111 602.21 185.901 601.257 181.902 601.257C177.391 601.257 173.75 602.867 170.982 606.086C168.213 609.306 166.829 613.541 166.829 618.791V625.928C166.829 629.435 167.475 632.562 168.767 635.31C170.08 638.058 171.915 640.191 174.273 641.708C176.652 643.206 179.37 643.954 182.425 643.954C185.419 643.954 188.198 643.513 190.762 642.631C193.325 641.75 195.089 640.683 196.053 639.432V626.389H182.364V624.697H197.714V640.201ZM228.698 645.615C226.012 645.615 223.541 644.897 221.285 643.462C219.049 642.006 217.296 640.017 216.024 637.494C214.753 634.972 214.117 632.172 214.117 629.096V627.712C214.117 624.636 214.732 621.816 215.963 619.252C217.193 616.689 218.885 614.689 221.039 613.254C223.192 611.818 225.54 611.101 228.083 611.101C231.795 611.101 234.83 612.423 237.189 615.069C239.547 617.714 240.726 621.19 240.726 625.497V627.25H215.778V629.065C215.778 631.772 216.342 634.285 217.47 636.602C218.619 638.899 220.188 640.704 222.177 642.016C224.187 643.329 226.36 643.985 228.698 643.985C230.934 643.985 232.831 643.616 234.389 642.877C235.968 642.119 237.363 640.96 238.573 639.401L239.742 640.232C237.26 643.821 233.579 645.615 228.698 645.615ZM228.083 612.762C224.843 612.762 222.095 613.972 219.839 616.392C217.583 618.791 216.26 621.857 215.871 625.589H239.065V625.189C239.065 622.934 238.583 620.842 237.619 618.914C236.676 616.966 235.363 615.458 233.682 614.392C232.021 613.305 230.154 612.762 228.083 612.762ZM277.186 636.848C277.186 632.808 273.741 630.06 266.85 628.604C262.708 627.722 259.826 626.594 258.206 625.22C256.586 623.826 255.776 621.918 255.776 619.499C255.776 617.058 256.801 615.048 258.852 613.469C260.923 611.89 263.61 611.101 266.912 611.101C270.501 611.101 273.382 611.962 275.556 613.685C277.73 615.387 278.817 617.694 278.817 620.606H277.125C277.125 618.371 276.181 616.504 274.295 615.007C272.408 613.51 269.947 612.762 266.912 612.762C264 612.762 261.692 613.397 259.99 614.669C258.288 615.94 257.437 617.53 257.437 619.437C257.437 620.934 257.755 622.113 258.391 622.975C259.026 623.815 260.062 624.584 261.498 625.282C262.933 625.958 265.025 626.615 267.773 627.25C270.521 627.886 272.695 628.635 274.295 629.496C275.894 630.357 277.053 631.383 277.771 632.572C278.488 633.741 278.847 635.177 278.847 636.879C278.847 639.504 277.771 641.616 275.617 643.216C273.464 644.815 270.644 645.615 267.158 645.615C263.425 645.615 260.411 644.774 258.114 643.093C255.838 641.391 254.699 639.207 254.699 636.541H256.36C256.525 638.878 257.55 640.704 259.437 642.016C261.344 643.308 263.918 643.954 267.158 643.954C270.131 643.954 272.541 643.267 274.387 641.893C276.253 640.499 277.186 638.817 277.186 636.848ZM299.957 602.733V611.716H307.525V613.408H299.957V637.033C299.957 639.391 300.337 641.134 301.095 642.262C301.875 643.39 303.167 643.954 304.971 643.954C305.874 643.954 306.971 643.862 308.263 643.677L308.54 645.246C307.863 645.492 306.704 645.615 305.064 645.615C302.644 645.615 300.911 644.949 299.865 643.616C298.819 642.262 298.286 640.14 298.265 637.248V613.408H292.113V611.716H298.265V602.733H299.957ZM345.861 645C345.451 643.585 345.246 641.555 345.246 638.909C343.933 641.042 342.139 642.693 339.863 643.862C337.586 645.031 335.012 645.615 332.141 645.615C329.065 645.615 326.584 644.785 324.697 643.124C322.831 641.442 321.898 639.258 321.898 636.571C321.898 633.516 323.272 631.075 326.02 629.25C328.788 627.404 332.459 626.461 337.032 626.42H345.246V621.56C345.246 618.771 344.364 616.607 342.6 615.069C340.857 613.531 338.355 612.762 335.094 612.762C332.059 612.762 329.527 613.541 327.496 615.1C325.466 616.658 324.451 618.586 324.451 620.883L322.79 620.821C322.79 618.114 323.979 615.817 326.358 613.931C328.737 612.044 331.649 611.101 335.094 611.101C338.683 611.101 341.534 612.003 343.646 613.808C345.759 615.592 346.845 618.114 346.907 621.375V637.279C346.907 640.929 347.194 643.411 347.768 644.723V645H345.861ZM332.141 643.985C335.259 643.985 337.935 643.288 340.17 641.893C342.426 640.499 344.118 638.54 345.246 636.018V628.112H337.555C332.798 628.112 329.157 629.055 326.635 630.942C324.584 632.48 323.559 634.397 323.559 636.694C323.559 638.725 324.369 640.447 325.989 641.862C327.609 643.277 329.66 643.985 332.141 643.985ZM346.907 599.288C346.907 600.97 346.384 602.344 345.338 603.41C344.313 604.477 343.031 605.01 341.493 605.01C339.832 605.01 338.263 604.374 336.786 603.103C335.31 601.811 333.936 601.165 332.664 601.165C331.516 601.165 330.603 601.513 329.926 602.21C329.27 602.908 328.942 603.841 328.942 605.01H327.25C327.25 603.369 327.763 602.046 328.788 601.042C329.814 600.016 331.106 599.503 332.664 599.503C334.264 599.503 335.833 600.139 337.371 601.411C338.929 602.682 340.303 603.318 341.493 603.318C342.6 603.318 343.492 602.949 344.169 602.21C344.866 601.472 345.215 600.498 345.215 599.288H346.907ZM363.31 627.712C363.31 624.533 363.915 621.683 365.125 619.16C366.356 616.617 368.078 614.638 370.293 613.223C372.529 611.808 375.051 611.101 377.861 611.101C380.65 611.101 383.152 611.788 385.367 613.162C387.581 614.536 389.304 616.484 390.534 619.006C391.785 621.529 392.421 624.369 392.442 627.527V629.004C392.442 632.203 391.837 635.064 390.627 637.586C389.417 640.109 387.694 642.078 385.459 643.493C383.244 644.908 380.732 645.615 377.922 645.615C375.113 645.615 372.59 644.918 370.355 643.523C368.14 642.129 366.417 640.181 365.187 637.679C363.956 635.156 363.331 632.326 363.31 629.188V627.712ZM364.971 629.004C364.971 631.772 365.515 634.315 366.602 636.633C367.709 638.93 369.237 640.724 371.185 642.016C373.154 643.308 375.4 643.954 377.922 643.954C381.716 643.954 384.803 642.529 387.181 639.678C389.581 636.828 390.781 633.157 390.781 628.666V627.712C390.781 624.984 390.227 622.462 389.119 620.145C388.012 617.827 386.474 616.022 384.505 614.73C382.557 613.418 380.342 612.762 377.861 612.762C374.067 612.762 370.97 614.208 368.571 617.099C366.171 619.991 364.971 623.631 364.971 628.02V629.004ZM429.463 627.712C429.463 624.533 430.068 621.683 431.278 619.16C432.508 616.617 434.231 614.638 436.446 613.223C438.681 611.808 441.204 611.101 444.013 611.101C446.802 611.101 449.304 611.788 451.519 613.162C453.734 614.536 455.456 616.484 456.687 619.006C457.938 621.529 458.574 624.369 458.594 627.527V629.004C458.594 632.203 457.989 635.064 456.779 637.586C455.569 640.109 453.847 642.078 451.611 643.493C449.396 644.908 446.884 645.615 444.075 645.615C441.265 645.615 438.743 644.918 436.507 643.523C434.292 642.129 432.57 640.181 431.339 637.679C430.109 635.156 429.483 632.326 429.463 629.188V627.712ZM431.124 629.004C431.124 631.772 431.667 634.315 432.754 636.633C433.862 638.93 435.39 640.724 437.338 642.016C439.307 643.308 441.552 643.954 444.075 643.954C447.869 643.954 450.955 642.529 453.334 639.678C455.733 636.828 456.933 633.157 456.933 628.666V627.712C456.933 624.984 456.379 622.462 455.272 620.145C454.164 617.827 452.626 616.022 450.658 614.73C448.709 613.418 446.495 612.762 444.013 612.762C440.219 612.762 437.122 614.208 434.723 617.099C432.324 619.991 431.124 623.631 431.124 628.02V629.004ZM486.164 643.954C489.179 643.954 491.66 643.154 493.608 641.555C495.577 639.955 496.654 637.74 496.838 634.91H498.499C498.335 638.13 497.095 640.724 494.777 642.693C492.46 644.641 489.589 645.615 486.164 645.615C482.001 645.615 478.689 644.108 476.228 641.093C473.788 638.079 472.567 633.987 472.567 628.819V627.712C472.567 622.667 473.788 618.637 476.228 615.623C478.689 612.608 481.98 611.101 486.103 611.101C489.63 611.101 492.542 612.157 494.839 614.269C497.136 616.381 498.356 619.191 498.499 622.698H496.838C496.695 619.704 495.639 617.304 493.67 615.5C491.722 613.674 489.199 612.762 486.103 612.762C482.391 612.762 479.478 614.105 477.366 616.792C475.274 619.458 474.228 623.169 474.228 627.927V629.004C474.228 633.659 475.285 637.32 477.397 639.986C479.53 642.631 482.452 643.954 486.164 643.954ZM537.359 645V639.617C536.375 641.462 534.939 642.929 533.052 644.016C531.166 645.082 528.776 645.615 525.885 645.615C522.255 645.615 519.527 644.559 517.702 642.447C515.897 640.314 514.975 637.217 514.934 633.157V611.716H516.595V633.218C516.636 636.746 517.436 639.422 518.994 641.247C520.553 643.052 522.829 643.954 525.823 643.954C529.002 643.954 531.586 643.206 533.575 641.708C535.564 640.211 536.826 638.017 537.359 635.125V611.716H539.051V645H537.359ZM583.201 628.666C583.201 633.854 582.084 637.976 579.848 641.032C577.613 644.087 574.567 645.615 570.712 645.615C568.19 645.615 565.944 645.103 563.975 644.077C562.006 643.052 560.468 641.637 559.361 639.832V657.797H557.7V611.716H559.361V617.653C560.509 615.541 562.058 613.92 564.006 612.792C565.954 611.665 568.169 611.101 570.65 611.101C574.547 611.101 577.613 612.598 579.848 615.592C582.084 618.565 583.201 622.749 583.201 628.143V628.666ZM581.509 628.02C581.509 623.241 580.556 619.509 578.649 616.822C576.762 614.115 574.106 612.762 570.681 612.762C567.892 612.762 565.524 613.49 563.575 614.946C561.627 616.381 560.222 618.453 559.361 621.16V636.725C560.222 639.022 561.627 640.806 563.575 642.078C565.544 643.329 567.933 643.954 570.743 643.954C574.147 643.954 576.793 642.601 578.679 639.894C580.566 637.187 581.509 633.229 581.509 628.02ZM621.968 645C621.558 643.585 621.353 641.555 621.353 638.909C620.041 641.042 618.246 642.693 615.97 643.862C613.694 645.031 611.12 645.615 608.249 645.615C605.173 645.615 602.691 644.785 600.804 643.124C598.938 641.442 598.005 639.258 598.005 636.571C598.005 633.516 599.379 631.075 602.127 629.25C604.896 627.404 608.567 626.461 613.14 626.42H621.353V621.56C621.353 618.771 620.471 616.607 618.708 615.069C616.965 613.531 614.463 612.762 611.202 612.762C608.167 612.762 605.634 613.541 603.604 615.1C601.573 616.658 600.558 618.586 600.558 620.883L598.897 620.821C598.897 618.114 600.087 615.817 602.465 613.931C604.844 612.044 607.757 611.101 611.202 611.101C614.791 611.101 617.641 612.003 619.754 613.808C621.866 615.592 622.953 618.114 623.014 621.375V637.279C623.014 640.929 623.301 643.411 623.876 644.723V645H621.968ZM608.249 643.985C611.366 643.985 614.042 643.288 616.277 641.893C618.533 640.499 620.225 638.54 621.353 636.018V628.112H613.663C608.905 628.112 605.265 629.055 602.742 630.942C600.692 632.48 599.666 634.397 599.666 636.694C599.666 638.725 600.476 640.447 602.096 641.862C603.716 643.277 605.767 643.985 608.249 643.985ZM653.23 643.954C656.244 643.954 658.726 643.154 660.674 641.555C662.643 639.955 663.719 637.74 663.904 634.91H665.565C665.401 638.13 664.16 640.724 661.843 642.693C659.526 644.641 656.655 645.615 653.23 645.615C649.067 645.615 645.755 644.108 643.294 641.093C640.853 638.079 639.633 633.987 639.633 628.819V627.712C639.633 622.667 640.853 618.637 643.294 615.623C645.755 612.608 649.046 611.101 653.168 611.101C656.696 611.101 659.608 612.157 661.905 614.269C664.201 616.381 665.422 619.191 665.565 622.698H663.904C663.76 619.704 662.704 617.304 660.736 615.5C658.787 613.674 656.265 612.762 653.168 612.762C649.456 612.762 646.544 614.105 644.432 616.792C642.34 619.458 641.294 623.169 641.294 627.927V629.004C641.294 633.659 642.35 637.32 644.463 639.986C646.595 642.631 649.518 643.954 653.23 643.954ZM684.183 645H682.522V611.716H684.183V645ZM681.661 601.318C681.661 600.847 681.825 600.447 682.153 600.119C682.481 599.77 682.881 599.596 683.353 599.596C683.824 599.596 684.224 599.77 684.552 600.119C684.901 600.447 685.075 600.847 685.075 601.318C685.075 601.79 684.901 602.19 684.552 602.518C684.224 602.846 683.824 603.01 683.353 603.01C682.881 603.01 682.481 602.846 682.153 602.518C681.825 602.19 681.661 601.79 681.661 601.318ZM700.771 627.712C700.771 624.533 701.376 621.683 702.586 619.16C703.817 616.617 705.539 614.638 707.754 613.223C709.99 611.808 712.512 611.101 715.322 611.101C718.111 611.101 720.613 611.788 722.827 613.162C725.042 614.536 726.765 616.484 727.995 619.006C729.246 621.529 729.882 624.369 729.903 627.527V629.004C729.903 632.203 729.298 635.064 728.088 637.586C726.878 640.109 725.155 642.078 722.92 643.493C720.705 644.908 718.193 645.615 715.383 645.615C712.574 645.615 710.051 644.918 707.816 643.523C705.601 642.129 703.878 640.181 702.648 637.679C701.417 635.156 700.792 632.326 700.771 629.188V627.712ZM702.432 629.004C702.432 631.772 702.976 634.315 704.063 636.633C705.17 638.93 706.698 640.724 708.646 642.016C710.615 643.308 712.861 643.954 715.383 643.954C719.177 643.954 722.263 642.529 724.642 639.678C727.042 636.828 728.242 633.157 728.242 628.666V627.712C728.242 624.984 727.688 622.462 726.58 620.145C725.473 617.827 723.935 616.022 721.966 614.73C720.018 613.418 717.803 612.762 715.322 612.762C711.528 612.762 708.431 614.208 706.032 617.099C703.632 619.991 702.432 623.631 702.432 628.02V629.004ZM747.844 619.468C748.931 616.884 750.531 614.843 752.643 613.346C754.755 611.849 757.093 611.101 759.657 611.101C763.225 611.101 765.87 612.116 767.593 614.146C769.336 616.156 770.218 619.201 770.239 623.282V645H768.578V623.221C768.557 619.652 767.829 617.017 766.393 615.315C764.958 613.592 762.682 612.731 759.564 612.731C756.693 612.731 754.202 613.756 752.089 615.807C749.997 617.837 748.582 620.462 747.844 623.682V645H746.183V611.716H747.844V619.468ZM810.39 645C809.98 643.585 809.775 641.555 809.775 638.909C808.462 641.042 806.668 642.693 804.392 643.862C802.115 645.031 799.541 645.615 796.67 645.615C793.594 645.615 791.113 644.785 789.226 643.124C787.36 641.442 786.427 639.258 786.427 636.571C786.427 633.516 787.801 631.075 790.549 629.25C793.317 627.404 796.988 626.461 801.561 626.42H809.775V621.56C809.775 618.771 808.893 616.607 807.129 615.069C805.386 613.531 802.884 612.762 799.623 612.762C796.588 612.762 794.056 613.541 792.025 615.1C789.995 616.658 788.98 618.586 788.98 620.883L787.319 620.821C787.319 618.114 788.508 615.817 790.887 613.931C793.266 612.044 796.178 611.101 799.623 611.101C803.212 611.101 806.063 612.003 808.175 613.808C810.288 615.592 811.374 618.114 811.436 621.375V637.279C811.436 640.929 811.723 643.411 812.297 644.723V645H810.39ZM796.67 643.985C799.788 643.985 802.464 643.288 804.699 641.893C806.955 640.499 808.647 638.54 809.775 636.018V628.112H802.084C797.327 628.112 793.686 629.055 791.164 630.942C789.113 632.48 788.088 634.397 788.088 636.694C788.088 638.725 788.898 640.447 790.518 641.862C792.138 643.277 794.189 643.985 796.67 643.985ZM832.423 645H830.762V597.75H832.423V645Z" fill="#640000"/>
</svg>
